<svg xmlns="http://www.w3.org/2000/svg" width="202.036" height="86.04" viewBox="0 0 202.036 86.04">
  <g id="Group_1100" data-name="Group 1100" transform="translate(-0.004)">
    <path id="Path_1508" data-name="Path 1508" d="M55.08,59.65a18.372,18.372,0,0,1,1.22-6.96,14.811,14.811,0,0,1,3.21-4.97,13.321,13.321,0,0,1,4.57-3.01,14.321,14.321,0,0,1,5.31-1.02q6.36,0,10.05,3.89t3.69,11.45c0,.49-.02,2.03-.06,2.61s-.08,1.11-.11,1.56H63.76a5.644,5.644,0,0,0,2.44,4.15,9.832,9.832,0,0,0,5.79,1.53,23.915,23.915,0,0,0,4.57-.43,16.615,16.615,0,0,0,3.66-1.05l1.58,7.32a11.472,11.472,0,0,1-1.82.68,23.062,23.062,0,0,1-2.53.6c-.93.17-1.92.31-2.98.43a30.8,30.8,0,0,1-3.18.17,18.967,18.967,0,0,1-7.02-1.19,13.554,13.554,0,0,1-4.94-3.27,15.882,15.882,0,0,1-3.35-5.36A28.183,28.183,0,0,1,55.08,59.65ZM74.97,57.4a8.725,8.725,0,0,0-.37-2.1,5.119,5.119,0,0,0-2.62-3.13,5.379,5.379,0,0,0-2.47-.51,5.679,5.679,0,0,0-2.44.48,4.987,4.987,0,0,0-1.7,1.28,5.708,5.708,0,0,0-1.05,1.85,11.472,11.472,0,0,0-.54,2.13Z" fill="#e62145"/>
    <path id="Path_1509" data-name="Path 1509" d="M89.44,46.5a46.423,46.423,0,0,1,5.57-1.16,52.842,52.842,0,0,1,7.69-.54,17.447,17.447,0,0,1,6.33.99,10.6,10.6,0,0,1,4.29,2.81,11.037,11.037,0,0,1,2.1,4.32,22.829,22.829,0,0,1,.62,5.57V75.36h-8.75V59.51q0-4.095-1.08-5.79c-.72-1.14-2.06-1.7-4.03-1.7-.61,0-1.25.03-1.93.09s-1.29.12-1.82.2V75.37H89.44V46.5Z" fill="#e62145"/>
    <path id="Path_1510" data-name="Path 1510" d="M149.55,71.61c0,4.89-.65,8.51-3.13,10.88s-6.32,3.55-11.5,3.55a38.421,38.421,0,0,1-6.04-.48,33.988,33.988,0,0,1-5.06-1.28l1.48-7.1a23.39,23.39,0,0,0,9.15,1.7c2.42,0,4.14-.53,5.14-1.59a5.72,5.72,0,0,0,1.51-4.09V72.12a13.651,13.651,0,0,1-2.81.94,14.891,14.891,0,0,1-3.15.31q-6.2,0-9.49-3.66c-2.2-2.44-3.29-6.37-3.29-10.76a16.806,16.806,0,0,1,1.02-5.99,12.821,12.821,0,0,1,2.98-4.63,13.326,13.326,0,0,1,4.8-2.98,18.394,18.394,0,0,1,6.42-1.05c1.02,0,2.07.05,3.15.14s2.15.22,3.21.37,2.07.33,3.04.54,1.83.43,2.58.65V71.61ZM130.97,59.45q0,7.095,5.74,7.1a8.367,8.367,0,0,0,2.44-.34,8.975,8.975,0,0,0,1.93-.8V51.89c-.42-.08-.91-.14-1.48-.2a19.478,19.478,0,0,0-1.99-.08,5.818,5.818,0,0,0-5,2.22A9.2,9.2,0,0,0,130.97,59.45Z" fill="#e62145"/>
    <path id="Path_1511" data-name="Path 1511" d="M168.56,44.03a19.574,19.574,0,0,1,6.25.85,9.658,9.658,0,0,1,4,2.44,10.632,10.632,0,0,1,2.13,4.26,18.957,18.957,0,0,1,.62,5.06V75.28q-1.815.4-5.06.94a48.552,48.552,0,0,1-7.84.54,24.866,24.866,0,0,1-5.25-.51,11.285,11.285,0,0,1-4.06-1.68,7.609,7.609,0,0,1-2.61-3.04,10.42,10.42,0,0,1-.91-4.6,13.231,13.231,0,0,1,1.05-5.46,8.138,8.138,0,0,1,2.81-2.9,12.638,12.638,0,0,1,4.03-1.56,22.733,22.733,0,0,1,4.71-.48,28.215,28.215,0,0,1,2.93.14,13.822,13.822,0,0,1,2.07.37v-.8a4.675,4.675,0,0,0-1.31-3.46c-.87-.87-2.39-1.31-4.54-1.31a12.54,12.54,0,0,0-2.81.31,18.508,18.508,0,0,0-3.64.88l-2.53-7.21c.49-.15,1.11-.31,1.85-.48s1.54-.32,2.41-.45,1.79-.25,2.76-.34A28.943,28.943,0,0,1,168.56,44.03Zm.68,25.17c.83,0,1.63-.02,2.39-.06a16.217,16.217,0,0,0,1.82-.17V62.55a15.377,15.377,0,0,0-1.53-.23,16.037,16.037,0,0,0-1.87-.11,17.48,17.48,0,0,0-2.24.14,6.177,6.177,0,0,0-1.85.54,3.146,3.146,0,0,0-1.25,1.08,3.009,3.009,0,0,0-.45,1.7,2.913,2.913,0,0,0,1.33,2.76A7.311,7.311,0,0,0,169.24,69.2Z" fill="#e62145"/>
    <path id="Path_1512" data-name="Path 1512" d="M200.85,75.49c-4.22-.07-9.01.43-11.55-3.72-1.78-2.9-1.37-6.7-1.37-10V37.29a14.126,14.126,0,0,1,0-2.52l9.46-3.94V63.38a11.552,11.552,0,0,0,.17,2.05,3.2,3.2,0,0,0,2.04,2.55,7.373,7.373,0,0,0,2.44.51C202.04,68.5,200.85,75.49,200.85,75.49Z" fill="#e62145"/>
    <g id="Group_2030_1_" transform="translate(69.015 2288.3)">
      <g id="Group_2029_1_">
        <path id="Path_5886_1_" d="M-42.87-2271.51l23.39-16.79v44.15a51.87,51.87,0,0,1-.89,10.33,45.477,45.477,0,0,1-1.35,5.16,34.433,34.433,0,0,1-2.3,5.42,25.316,25.316,0,0,1-3.49,5.02,19.248,19.248,0,0,1-11.58,6.23,23.877,23.877,0,0,1-3.78.28Z" fill="#e62145"/>
        <path id="Path_5887_1_" d="M-68.99-2238.79s-1.6,27.04,23.42,27.04v-27.04Z" fill="#e62145"/>
      </g>
    </g>
  </g>
</svg>
